<?xml version="1.0" standalone="no"?>
<!DOCTYPE svg PUBLIC "-//W3C//DTD SVG 20010904//EN"
 "http://www.w3.org/TR/2001/REC-SVG-20010904/DTD/svg10.dtd">
<svg version="1.0" xmlns="http://www.w3.org/2000/svg"
 width="1920.000000pt" height="1080.000000pt" viewBox="0 0 1920.000000 1080.000000"
 preserveAspectRatio="xMidYMid meet">
<metadata>
Created by potrace 1.16, written by Peter Selinger 2001-2019
</metadata>
<g transform="translate(0.000000,1080.000000) scale(0.100000,-0.100000)"
fill="#000000" stroke="none">
<path d="M0 5400 l0 -5400 9600 0 9600 0 0 5400 0 5400 -9600 0 -9600 0 0
-5400z m13548 5060 c49 -22 87 -49 121 -85 90 -95 120 -182 128 -372 l6 -131
86 -7 c375 -28 570 -165 612 -428 11 -67 11 -91 -5 -181 -27 -161 -91 -331
-154 -409 -184 -228 -510 -270 -859 -111 -28 13 -58 24 -65 24 -17 0 -828
-811 -828 -828 0 -8 26 -48 59 -90 118 -156 201 -280 299 -450 49 -84 194
-383 237 -487 76 -185 162 -468 205 -675 18 -87 19 -88 53 -95 80 -18 280 -90
372 -135 197 -97 264 -211 201 -346 -52 -111 -195 -190 -523 -290 -8 -2 -13
-23 -13 -56 0 -160 -45 -544 -86 -738 -135 -634 -379 -1156 -794 -1694 l-61
-80 428 -428 c235 -235 435 -428 443 -428 9 0 24 6 35 13 31 21 191 77 268 93
37 8 107 14 155 14 181 -1 303 -50 422 -169 66 -66 80 -87 109 -161 109 -277
120 -483 34 -629 -59 -100 -146 -169 -268 -211 -72 -25 -209 -48 -295 -51 -36
-1 -71 -6 -77 -11 -9 -7 -11 -28 -7 -67 3 -31 -1 -102 -10 -161 -29 -194 -115
-313 -269 -372 -56 -21 -77 -23 -217 -22 -147 2 -161 4 -279 38 -68 20 -146
49 -173 63 -60 33 -145 113 -181 171 -93 147 -121 369 -77 607 12 61 23 124
26 140 5 28 -7 42 -165 199 -93 93 -174 172 -180 176 -7 3 -94 87 -194 186
-101 98 -210 206 -244 238 l-62 60 -83 -56 c-130 -87 -319 -195 -484 -275
-162 -78 -156 -73 -195 -183 -106 -299 -425 -633 -782 -819 -267 -140 -520
-193 -811 -170 -640 50 -1143 406 -1300 920 l-26 84 -87 34 c-264 101 -564
257 -794 411 -47 32 -91 55 -97 51 -6 -4 -133 -126 -283 -271 -149 -146 -336
-328 -415 -405 l-145 -140 21 -85 c30 -120 43 -294 30 -405 -24 -223 -125
-382 -294 -464 -126 -62 -347 -106 -486 -98 -162 9 -265 60 -346 169 -60 83
-84 168 -93 332 l-6 131 -130 11 c-257 24 -410 97 -503 243 -39 61 -72 171
-72 243 0 103 67 357 123 464 37 71 141 165 232 211 120 61 306 75 461 34 82
-21 231 -77 249 -92 5 -5 16 -9 24 -9 15 0 833 810 852 843 8 15 0 31 -44 85
-226 277 -489 734 -603 1047 -9 22 -24 65 -35 95 -61 166 -146 481 -169 622
-5 37 -12 73 -15 80 -18 49 -54 456 -55 619 l0 96 -62 18 c-35 10 -67 21 -73
25 -5 4 -32 15 -60 25 -131 47 -225 113 -251 173 -19 45 -14 112 11 166 37 78
185 168 387 236 103 34 113 40 119 66 3 16 14 67 24 114 21 106 33 149 102
380 112 373 365 854 629 1198 35 45 64 86 64 90 0 4 -183 191 -408 415 l-408
407 -62 -30 c-35 -17 -111 -45 -170 -62 -93 -28 -123 -32 -227 -32 -135 -1
-184 10 -289 62 -77 38 -176 125 -211 187 -21 37 -55 119 -85 205 -18 52 -50
220 -50 262 0 60 28 174 56 230 55 108 176 196 324 236 72 20 109 25 249 37
35 3 67 7 71 10 4 2 10 64 13 137 9 188 44 285 134 373 53 52 80 68 167 98
140 47 445 9 628 -78 108 -52 213 -177 257 -306 47 -139 48 -370 2 -563 -14
-59 -16 -83 -8 -95 13 -19 629 -620 722 -705 l65 -59 103 70 c469 319 977 528
1552 637 243 46 402 59 725 59 268 0 339 -3 480 -22 375 -50 685 -129 1010
-256 257 -100 646 -311 828 -448 46 -35 54 -38 70 -26 18 15 193 183 507 490
104 102 211 205 238 229 55 50 57 59 26 193 -17 73 -22 124 -21 252 0 145 2
168 26 241 43 133 120 237 231 308 51 33 228 89 333 106 31 5 113 8 183 6 118
-2 129 -5 197 -36z"/>
<path d="M13120 10435 c-202 -45 -313 -100 -385 -194 -47 -60 -90 -151 -106
-226 -18 -83 -15 -311 5 -405 9 -41 21 -99 27 -128 l12 -53 -54 -52 c-30 -29
-198 -192 -374 -362 -403 -391 -460 -445 -468 -445 -3 0 -57 34 -119 76 -392
264 -848 468 -1268 568 -151 36 -238 54 -285 60 -27 4 -93 13 -145 21 -514 75
-1135 28 -1645 -125 -38 -11 -90 -27 -115 -34 -45 -14 -198 -69 -235 -85 -11
-5 -69 -30 -130 -57 -229 -99 -501 -253 -695 -393 l-54 -39 -269 261 c-148
144 -345 336 -439 427 l-170 165 28 110 c24 97 27 130 28 280 1 141 -2 179
-18 225 -36 109 -69 164 -136 230 -88 87 -155 116 -374 160 -133 28 -257 24
-355 -10 -89 -32 -167 -109 -206 -205 -25 -64 -28 -83 -32 -237 l-5 -168 -72
0 c-220 0 -400 -51 -503 -144 -116 -105 -157 -259 -118 -446 15 -71 46 -176
64 -215 5 -11 19 -42 32 -69 45 -100 179 -202 311 -240 86 -24 233 -21 343 8
106 28 182 57 231 85 19 12 42 21 51 21 13 0 903 -882 903 -896 0 -2 -35 -51
-78 -107 -136 -178 -248 -347 -332 -502 -56 -103 -170 -331 -170 -340 0 -4 -6
-21 -14 -38 -86 -188 -212 -593 -232 -746 -7 -56 -31 -91 -60 -91 -9 0 -62
-16 -118 -36 -328 -118 -449 -262 -331 -393 38 -41 225 -141 267 -141 7 0 24
-6 38 -13 14 -7 45 -19 70 -26 l46 -12 12 -252 c31 -654 182 -1194 489 -1757
62 -113 217 -356 265 -415 62 -76 168 -217 168 -223 0 -4 -206 -213 -458 -465
l-458 -458 -64 32 c-144 71 -274 104 -415 104 -167 0 -272 -41 -383 -148 -59
-58 -84 -101 -130 -227 -98 -267 -80 -461 55 -595 85 -84 224 -138 388 -150
44 -3 108 -8 143 -11 l62 -6 0 -136 c0 -150 21 -256 62 -316 131 -192 310
-221 716 -117 101 26 233 135 283 232 52 102 64 165 64 334 -1 133 -5 177 -24
260 -13 55 -26 109 -28 121 -3 15 7 31 39 59 24 21 205 197 403 390 382 373
448 435 460 435 4 0 64 -38 134 -84 247 -163 541 -314 798 -407 l92 -34 21
-80 c66 -247 245 -488 473 -637 127 -84 133 -87 220 -124 219 -94 454 -144
675 -144 378 0 782 186 1094 503 149 151 274 344 324 501 12 39 28 74 36 78 7
4 83 40 168 81 156 74 411 221 528 304 48 34 68 43 82 37 10 -5 163 -151 341
-324 178 -173 376 -367 442 -430 l118 -115 -19 -80 c-35 -142 -42 -199 -42
-321 1 -289 118 -483 335 -553 152 -49 237 -64 370 -65 l130 -1 77 38 c161 78
218 203 218 476 l0 110 33 5 c17 2 88 9 157 15 201 17 331 70 420 169 71 79
95 150 95 282 0 116 -15 185 -73 335 -41 108 -84 169 -154 223 -105 79 -204
112 -341 112 -133 0 -242 -27 -395 -96 -41 -19 -79 -34 -85 -34 -7 0 -219 207
-472 460 l-459 459 30 38 c481 599 751 1211 868 1968 13 88 32 330 39 510 2
59 2 59 37 68 19 5 89 27 155 49 194 64 314 139 354 221 39 81 23 156 -47 219
-97 88 -197 131 -509 223 l-62 19 -11 50 c-70 337 -176 644 -327 949 -116 236
-291 513 -433 691 l-72 89 460 460 460 460 84 -38 c191 -87 335 -113 493 -90
111 17 194 57 276 133 69 64 95 108 143 243 91 254 70 466 -56 585 -23 22 -57
50 -74 62 -76 52 -232 90 -408 101 l-109 6 -2 140 c-3 162 -20 243 -70 320
-44 68 -79 99 -150 132 -56 26 -70 28 -200 30 -93 2 -162 -3 -205 -12z m337
-176 c90 -44 124 -152 120 -382 -2 -124 0 -138 19 -164 31 -42 61 -52 170 -59
313 -19 435 -64 493 -179 21 -41 23 -57 19 -133 -8 -154 -76 -333 -151 -398
-78 -66 -117 -78 -252 -79 -91 0 -134 5 -175 18 -100 34 -169 66 -258 121 -54
33 -65 36 -79 25 -9 -8 -227 -223 -484 -479 -256 -256 -478 -475 -491 -488
l-25 -23 -89 92 c-49 50 -143 139 -209 196 -66 58 -126 111 -133 117 -13 12
42 69 401 417 70 68 221 214 334 325 l206 200 -25 80 c-103 314 -83 576 52
698 51 46 74 56 210 92 121 31 286 33 347 3z m-7762 -5 c253 -44 343 -111 389
-291 22 -84 20 -221 -4 -339 -18 -84 -50 -201 -66 -241 -3 -6 84 -98 193 -205
297 -291 558 -545 653 -636 l85 -82 -35 -33 c-20 -17 -58 -51 -85 -75 -28 -24
-112 -105 -188 -180 l-137 -137 -493 493 c-271 270 -496 492 -500 492 -5 0
-41 -20 -80 -44 -209 -126 -450 -170 -583 -105 -58 27 -129 91 -151 133 -33
64 -73 193 -85 274 -33 238 82 330 443 351 162 10 195 18 234 61 18 20 21 41
26 214 7 212 15 252 66 303 61 61 158 75 318 47z m4205 -2398 c151 -26 237
-45 365 -82 130 -37 141 -41 290 -104 304 -129 586 -321 830 -565 107 -107
295 -335 295 -357 0 -6 -10 -8 -22 -4 -64 18 -491 68 -868 100 -859 75 -1737
72 -2650 -9 -270 -24 -689 -74 -756 -91 l-26 -7 18 29 c39 62 172 223 254 308
440 457 993 725 1650 800 91 10 529 -2 620 -18z m375 -1556 c226 -6 421 -12
435 -15 14 -2 115 -9 225 -15 464 -24 1229 -103 1570 -161 374 -64 483 -83
575 -105 370 -87 582 -159 678 -231 l34 -25 -27 -28 c-73 -76 -327 -161 -675
-226 -237 -44 -739 -110 -764 -101 -7 3 -16 30 -20 60 -7 64 -35 135 -62 159
-11 9 -48 28 -84 42 -36 15 -74 31 -85 36 -11 5 -38 16 -60 23 -22 8 -80 29
-130 46 -121 44 -429 138 -525 161 -25 6 -70 17 -100 25 -104 25 -245 56 -320
70 -41 8 -113 21 -160 30 -122 23 -346 53 -565 77 -235 25 -1007 37 -1226 19
-523 -43 -972 -119 -1331 -225 -49 -14 -126 -37 -172 -51 -122 -36 -347 -118
-509 -185 -166 -70 -204 -102 -231 -198 -9 -32 -16 -66 -16 -76 0 -17 -7 -18
-82 -12 -108 8 -417 58 -568 91 -36 8 -117 26 -180 40 -63 14 -149 34 -190 45
-41 10 -86 22 -100 26 -184 46 -424 142 -415 166 12 30 218 122 370 164 361
100 840 187 1365 248 274 32 397 45 465 50 39 3 151 13 250 21 531 45 1456 77
1970 69 138 -3 435 -9 660 -14z m-490 -320 c634 -31 1196 -122 1745 -285 127
-37 276 -85 320 -103 14 -6 80 -32 148 -58 101 -38 126 -52 135 -73 21 -47 13
-414 -12 -571 -59 -376 -154 -649 -331 -955 -342 -591 -932 -1041 -1595 -1215
-424 -111 -880 -114 -1309 -9 -304 75 -655 238 -905 421 -687 505 -1086 1290
-1080 2127 1 167 5 187 39 212 52 39 416 176 665 252 651 197 1457 292 2180
257z m-3130 -3431 c66 -65 158 -150 205 -189 121 -103 114 -95 97 -111 -8 -8
-144 -140 -302 -294 -159 -154 -369 -359 -468 -455 l-179 -176 25 -69 c39
-108 67 -266 67 -373 0 -174 -63 -316 -164 -369 -80 -42 -266 -83 -375 -83
-91 0 -136 15 -179 58 -58 58 -72 118 -72 306 0 245 -13 260 -241 271 -143 7
-275 32 -338 64 -60 31 -108 94 -122 160 -23 113 39 357 114 447 61 72 175
124 273 124 121 0 310 -62 438 -144 31 -20 62 -36 69 -36 7 0 237 225 511 499
275 275 505 497 510 494 6 -4 65 -59 131 -124z m3855 79 c24 -57 49 -113 86
-196 31 -67 30 -78 -3 -90 -16 -6 -75 -28 -133 -50 -153 -58 -146 -57 -158
-25 -6 16 -27 95 -48 177 -35 143 -36 150 -18 163 10 7 25 13 34 13 9 0 54 13
100 29 47 16 92 30 101 30 11 1 25 -18 39 -51z m2853 -958 c5 0 21 8 35 19 38
27 177 96 242 120 130 48 294 52 386 11 85 -39 137 -99 177 -203 40 -104 67
-215 67 -279 0 -49 -26 -123 -55 -156 -57 -67 -187 -110 -355 -118 -174 -8
-233 -20 -267 -56 l-28 -29 -6 -192 c-5 -164 -9 -199 -27 -238 -51 -116 -162
-151 -356 -114 -98 19 -213 53 -246 74 -74 45 -131 136 -149 236 -24 129 -4
328 48 480 l30 90 -257 254 c-141 139 -357 350 -479 469 -123 118 -223 220
-222 226 0 6 36 40 81 76 44 36 144 127 221 202 l142 137 505 -504 c278 -278
509 -505 513 -505z m-4660 970 c56 -17 105 -34 110 -39 7 -7 -59 -367 -69
-380 -4 -4 -182 55 -243 81 -36 15 -42 22 -38 41 12 51 121 327 129 327 5 0
55 -14 111 -30z m424 -96 l113 -17 -5 -166 c-3 -91 -8 -181 -11 -200 l-5 -34
-62 7 c-34 3 -84 10 -112 16 -27 5 -75 14 -105 20 -88 17 -84 -2 -42 205 6 28
16 79 23 115 6 36 14 69 17 74 2 4 20 6 40 2 19 -3 86 -13 149 -22z m977 17
c3 -5 12 -37 20 -72 8 -35 26 -109 40 -164 14 -55 26 -105 26 -111 0 -15 -259
-74 -326 -74 l-31 0 -7 88 c-3 48 -10 132 -15 187 -5 54 -8 102 -6 105 2 4 44
13 92 20 48 7 106 16 128 20 57 11 73 11 79 1z m-420 -49 c7 -11 31 -381 25
-386 -9 -10 -275 -19 -323 -12 l-48 7 6 92 c3 51 8 140 12 200 l6 107 158 0
c88 0 161 -4 164 -8z m1074 -449 c45 -104 82 -191 82 -195 0 -25 -412 -238
-462 -238 -3 0 -21 46 -38 103 -37 119 -62 197 -90 286 -11 35 -17 67 -15 71
3 5 20 12 38 15 46 10 240 78 322 113 39 16 73 30 76 31 3 1 42 -83 87 -186z
m-2178 84 c124 -42 248 -77 272 -77 27 0 31 -17 15 -63 -8 -23 -25 -78 -37
-122 -41 -145 -80 -276 -85 -283 -7 -8 -259 74 -412 134 -55 22 -73 34 -73 49
0 10 32 103 70 206 39 103 70 192 70 198 0 16 24 19 50 6 14 -6 72 -28 130
-48z m1540 -100 c0 -7 15 -60 34 -117 47 -144 94 -301 98 -324 3 -22 -4 -25
-162 -60 -119 -28 -347 -56 -444 -56 l-65 0 -3 246 c-2 135 -1 249 2 254 3 4
59 10 125 14 66 5 179 18 250 31 160 28 165 28 165 12z m-1005 -27 c39 -6 131
-14 205 -18 l135 -7 3 -248 c2 -216 0 -248 -13 -253 -35 -14 -546 56 -569 77
-11 10 -3 44 49 219 21 69 44 150 52 180 19 70 21 73 47 66 11 -3 53 -10 91
-16z m1707 -373 c-88 -233 -312 -489 -582 -662 -84 -54 -268 -144 -345 -168
-194 -61 -396 -74 -610 -37 -186 32 -299 68 -448 144 -120 62 -187 108 -278
194 -136 128 -212 243 -268 407 -17 50 -31 93 -31 98 0 10 34 9 46 -2 13 -14
324 -115 429 -141 186 -45 213 -50 335 -70 587 -92 1135 -18 1600 218 80 40
149 78 155 83 18 18 17 -10 -3 -64z"/>
<path d="M8235 5329 c-148 -11 -276 -56 -410 -145 -308 -203 -468 -577 -396
-926 34 -164 74 -255 173 -390 150 -205 401 -338 668 -354 413 -26 788 226
920 617 125 367 0 779 -305 1011 -194 148 -396 206 -650 187z"/>
<path d="M10695 5330 c-204 -18 -442 -138 -577 -289 -95 -106 -180 -265 -214
-401 -26 -104 -26 -324 0 -430 39 -158 138 -330 253 -442 108 -105 234 -177
389 -224 79 -24 106 -27 239 -28 126 0 163 3 234 22 349 94 607 372 671 722
16 82 15 245 0 330 -60 331 -312 611 -637 709 -58 17 -250 45 -273 39 -3 0
-41 -4 -85 -8z"/>
<path d="M9427 3710 c-98 -25 -191 -105 -239 -205 -24 -52 -28 -72 -28 -147 0
-143 61 -256 175 -323 161 -94 386 -46 490 104 77 112 85 290 17 400 -32 53
-99 114 -157 144 -50 25 -74 31 -140 33 -44 2 -97 -1 -118 -6z"/>
</g>
</svg>
